HIERARCHY
ROOT Hips
{
 OFFSET 0.000000 0.000000 0.000000
 CHANNELS 6 Xposition Yposition Zposition Yrotation Xrotation Zrotation
 JOINT Chest
 {
  OFFSET 0.000000 9.585900 0.002600
  CHANNELS 3 Yrotation Xrotation Zrotation
  JOINT Chest2
  {
   OFFSET 0.000000 9.601200 -0.005300
   CHANNELS 3 Yrotation Xrotation Zrotation
   JOINT Chest3
   {
    OFFSET 0.000000 9.561800 0.000000
    CHANNELS 3 Yrotation Xrotation Zrotation
    JOINT Chest4
    {
     OFFSET 0.000000 9.552100 0.000000
     CHANNELS 3 Yrotation Xrotation Zrotation
     JOINT Neck
     {
      OFFSET 0.000000 14.453000 0.000000
      CHANNELS 3 Yrotation Xrotation Zrotation
      JOINT Head
      {
       OFFSET 0.000000 8.936500 -0.011300
       CHANNELS 3 Yrotation Xrotation Zrotation
       End Site
       {
        OFFSET 0.000000 17.073600 -0.006000
       }
      }
     }
     JOINT RightCollar
     {
      OFFSET -2.921100 9.558500 0.000000
      CHANNELS 3 Yrotation Xrotation Zrotation
      JOINT RightShoulder
      {
       OFFSET -13.519700 0.000000 0.000000
       CHANNELS 3 Yrotation Xrotation Zrotation
       JOINT RightElbow
       {
        OFFSET 0.000000 -29.696600 0.000000
        CHANNELS 3 Yrotation Xrotation Zrotation
        JOINT RightWrist
        {
         OFFSET 0.000000 -24.004700 0.000000
         CHANNELS 3 Yrotation Xrotation Zrotation
         End Site
         {
          OFFSET 0.000000 -17.728500 0.000000
         }
        }
       }
      }
     }
     JOINT LeftCollar
     {
      OFFSET 2.921100 9.558500 0.000000
      CHANNELS 3 Yrotation Xrotation Zrotation
      JOINT LeftShoulder
      {
       OFFSET 13.519700 0.000000 0.000000
       CHANNELS 3 Yrotation Xrotation Zrotation
       JOINT LeftElbow
       {
        OFFSET 0.000000 -29.696600 0.000000
        CHANNELS 3 Yrotation Xrotation Zrotation
        JOINT LeftWrist
        {
         OFFSET 0.000000 -24.004700 0.000000
         CHANNELS 3 Yrotation Xrotation Zrotation
         End Site
         {
          OFFSET 0.000000 -17.728500 0.000000
         }
        }
       }
      }
     }
    }
   }
  }
 }
 JOINT RightHip
 {
  OFFSET -7.771700 -0.012900 -0.001300
  CHANNELS 3 Yrotation Xrotation Zrotation
  JOINT RightKnee
  {
   OFFSET 0.000000 -40.869800 0.001200
   CHANNELS 3 Yrotation Xrotation Zrotation
   JOINT RightAnkle
   {
    OFFSET 0.000000 -39.717900 0.002100
    CHANNELS 3 Yrotation Xrotation Zrotation
    JOINT RightToe
    {
     OFFSET 0.000000 -4.965400 11.033500
     CHANNELS 3 Yrotation Xrotation Zrotation
     End Site
     {
      OFFSET 0.000000 -1.423100 5.872300
     }
    }
   }
  }
 }
 JOINT LeftHip
 {
  OFFSET 7.771700 -0.012900 -0.001300
  CHANNELS 3 Yrotation Xrotation Zrotation
  JOINT LeftKnee
  {
   OFFSET 0.000000 -40.869800 0.001200
   CHANNELS 3 Yrotation Xrotation Zrotation
   JOINT LeftAnkle
   {
    OFFSET 0.000000 -39.717900 0.002100
    CHANNELS 3 Yrotation Xrotation Zrotation
    JOINT LeftToe
    {
     OFFSET 0.000000 -4.965400 11.033500
     CHANNELS 3 Yrotation Xrotation Zrotation
     End Site
     {
      OFFSET 0.000000 -1.423100 5.872300
     }
    }
   }
  }
 }
}
MOTION
Frames: 16
Frame Time: 0.008333
-9.202544 52.851777 15.301469 -179.708639 -15.583750 -2.592202 0.879888 15.476790 0.430301 0.080722 1.462702 0.042555 0.136009 2.465962 0.072720 0.815907 13.779668 0.490390 0.603818 17.608431 2.137770 0.156628 -7.185639 2.125933 0.289524 -0.163857 2.439797 0.407046 -7.809557 -5.097046 -83.134978 -69.813516 114.327907 -9.879259 -8.491893 -11.653733 -5.794521 -1.383279 1.828063 3.272219 -5.161311 9.463640 73.623548 -59.068338 -112.620248 3.419918 -9.565206 8.993606 2.297225 -62.908014 11.732164 171.202685 85.937196 169.997459 -12.812487 -22.269504 14.385169 0.007295 0.006869 0.007760 3.533659 -61.512463 -1.903580 122.764251 77.592465 121.452059 -5.517550 -20.301085 -1.694910 0.028799 0.153867 0.009547
-9.203847 52.852070 15.300092 -179.708512 -15.583102 -2.595303 0.880794 15.486530 0.433196 0.080713 1.464537 0.042698 0.136032 2.469006 0.072890 0.817606 13.775385 0.491819 0.595392 17.604733 2.126662 0.148496 -7.216512 2.106648 0.280532 -0.182393 2.438958 0.422280 -7.802604 -5.105824 -83.150507 -69.815849 114.347293 -9.883982 -8.490321 -11.650496 -5.800858 -1.396903 1.832473 3.271345 -5.169001 9.474252 73.602169 -59.070015 -112.615889 3.419909 -9.572995 9.007215 2.301745 -62.905912 11.718688 171.061120 85.935002 169.848593 -12.656352 -22.293051 14.356836 0.011595 -0.003317 -0.000792 3.531254 -61.512437 -1.900186 122.772009 77.594978 121.460228 -5.516030 -20.302066 -1.693482 0.028588 0.153045 0.010219
-9.206601 52.852419 15.298725 -179.708967 -15.583488 -2.590623 0.880061 15.497825 0.428363 0.080537 1.469642 0.042678 0.136045 2.469014 0.072832 0.814851 13.806517 0.491565 0.591155 17.564770 2.116974 0.153080 -7.226778 2.109527 0.276744 -0.235009 2.438175 0.454871 -7.800784 -5.128625 -83.163065 -69.797665 114.346706 -9.874538 -8.499148 -11.645090 -5.807646 -1.451223 1.849078 3.273979 -5.172026 9.479137 73.580744 -59.069817 -112.611002 3.413720 -9.571536 9.000335 2.313400 -62.906713 11.726856 171.345532 85.938783 170.150843 -12.683720 -22.294546 14.352377 0.006045 -0.004482 -0.001319 3.540600 -61.511413 -1.911325 122.788007 77.596377 121.471459 -5.510850 -20.301246 -1.684178 0.021720 0.149499 0.007465
-9.209358 52.852803 15.297863 -179.707282 -15.582145 -2.587724 0.878364 15.507990 0.425270 0.080466 1.471708 0.042600 0.135915 2.472264 0.072727 0.813594 13.808655 0.490994 0.584619 17.553458 2.107054 0.147930 -7.244574 2.103471 0.281129 -0.260915 2.429173 0.457043 -7.796791 -5.126442 -83.176126 -69.800357 114.372469 -9.872089 -8.524632 -11.651877 -5.832907 -1.485953 1.869494 3.279284 -5.177030 9.497112 73.558289 -59.050003 -112.591125 3.422207 -9.585278 9.018599 2.329023 -62.908702 11.704392 171.275244 85.936823 170.075370 -12.515241 -22.305372 14.315927 0.010063 -0.022872 -0.006441 3.546710 -61.512048 -1.920276 122.808734 77.602762 121.486137 -5.502842 -20.299401 -1.673952 0.018357 0.147522 0.004217
-9.211266 52.853345 15.297373 -179.705505 -15.580157 -2.591288 0.877914 15.517343 0.428277 0.080400 1.473716 0.042516 0.135794 2.475398 0.072641 0.813480 13.798719 0.491244 0.577433 17.553714 2.095709 0.133712 -7.276615 2.076089 0.282176 -0.269711 2.425867 0.462213 -7.797752 -5.129423 -83.182050 -69.795986 114.375334 -9.867074 -8.540964 -11.644866 -5.840820 -1.496524 1.875727 3.277819 -5.182723 9.505058 73.539836 -59.054407 -112.588369 3.423974 -9.587929 9.019586 2.325735 -62.909545 11.688661 171.025689 85.931670 169.805282 -12.260884 -22.316204 14.263539 0.014914 -0.049251 -0.011787 3.541908 -61.512218 -1.916394 122.805377 77.608573 121.483298 -5.501067 -20.298984 -1.673851 0.021005 0.148900 0.006032
-9.213412 52.854125 15.296874 -179.708429 -15.579968 -2.593611 0.880628 15.525233 0.430214 0.081103 1.471923 0.043041 0.135013 2.480839 0.072071 0.814426 13.811427 0.490926 0.572521 17.533681 2.087768 0.131798 -7.293703 2.062724 0.284326 -0.296437 2.422479 0.465285 -7.798043 -5.128257 -83.187902 -69.793440 114.379049 -9.866717 -8.551993 -11.638089 -5.849729 -1.524757 1.885960 3.284133 -5.181559 9.502978 73.530972 -59.059387 -112.589566 3.405664 -9.579736 8.994089 2.325186 -62.909055 11.692691 170.999137 85.934128 169.780153 -12.178235 -22.315651 14.238000 0.012167 -0.059783 -0.012945 3.540913 -61.509838 -1.911957 122.806663 77.615446 121.486466 -5.499493 -20.299461 -1.675983 0.026114 0.149576 0.008581
-9.214867 52.855132 15.296536 -179.711958 -15.580147 -2.601354 0.885723 15.527862 0.438478 0.080347 1.475523 0.042462 0.135813 2.478415 0.072625 0.811505 13.830340 0.488627 0.574886 17.512289 2.086560 0.131273 -7.303878 2.048672 0.287812 -0.321309 2.420075 0.469471 -7.795635 -5.123982 -83.214339 -69.799437 114.419892 -9.872633 -8.561651 -11.649568 -5.874804 -1.560415 1.913945 3.304382 -5.182342 9.500890 73.510508 -59.046494 -112.574054 3.405983 -9.584860 8.995334 2.313968 -62.907218 11.696891 170.996556 85.936122 169.757923 -12.003189 -22.313963 14.206810 0.021978 -0.067858 -0.009302 3.529054 -61.509119 -1.895112 122.810050 77.618904 121.491689 -5.498225 -20.297920 -1.676854 0.029664 0.148813 0.009601
-9.215836 52.856384 15.296106 -179.710243 -15.581670 -2.614786 0.887964 15.540623 0.449659 0.080887 1.477921 0.042240 0.136288 2.482197 0.072297 0.814590 13.839785 0.487201 0.572344 17.494263 2.077346 0.130738 -7.315610 2.056834 0.287957 -0.352919 2.415876 0.467489 -7.796742 -5.117333 -83.216111 -69.798650 114.423223 -9.875786 -8.563846 -11.651720 -5.896591 -1.592001 1.932812 3.297785 -5.207924 9.528439 73.475512 -59.016100 -112.546693 3.400669 -9.591196 9.008621 2.289793 -62.900836 11.692209 170.689022 85.933872 169.417448 -11.761099 -22.320302 14.168443 0.031469 -0.081235 -0.010025 3.509954 -61.505221 -1.870419 122.804280 77.625291 121.489425 -5.503189 -20.302084 -1.677747 0.037159 0.154223 0.013203
-9.219517 52.857544 15.296038 -179.707443 -15.581416 -2.613381 0.889478 15.567187 0.441020 0.079428 1.466528 0.045412 0.136726 2.486315 0.072702 0.814219 13.880782 0.489202 0.566729 17.450933 2.062686 0.130243 -7.343006 2.051799 0.288328 -0.417940 2.405553 0.463025 -7.798750 -5.104992 -83.203339 -69.797843 114.411524 -9.875896 -8.566735 -11.650187 -5.914536 -1.654358 1.951449 3.308614 -5.213097 9.527406 73.466487 -59.025927 -112.566956 3.406833 -9.593379 9.023751 2.290916 -62.901998 11.706792 171.035181 85.941430 169.782256 -11.920421 -22.297656 14.192147 0.023723 -0.067040 0.003218 3.526798 -61.503767 -1.896052 122.767496 77.621029 121.461305 -5.501223 -20.299289 -1.678998 0.030750 0.155270 0.013421
-9.224352 52.858845 15.295484 -179.705792 -15.584525 -2.605455 0.885675 15.583690 0.429390 0.081791 1.470261 0.045960 0.135890 2.499764 0.071749 0.812502 13.872229 0.491346 0.565512 17.435552 2.058448 0.126237 -7.357371 2.037187 0.288720 -0.441981 2.399354 0.459789 -7.803959 -5.109599 -83.209125 -69.779668 114.414983 -9.870348 -8.571256 -11.648583 -5.919338 -1.676504 1.957997 3.309369 -5.221791 9.531261 73.447742 -59.049822 -112.592453 3.410048 -9.592325 9.023142 2.307894 -62.906041 11.764377 172.098064 85.961560 170.929666 -12.526272 -22.241679 14.277747 -0.004887 -0.026003 0.027808 3.545184 -61.499420 -1.922891 122.785990 77.628403 121.482514 -5.493041 -20.295303 -1.679931 0.031758 0.151620 0.015168
-9.227872 52.860142 15.295254 -179.706845 -15.585867 -2.604786 0.885772 15.594881 0.426520 0.082002 1.475189 0.045161 0.136365 2.494249 0.073290 0.811606 13.891585 0.491505 0.563006 17.417338 2.046302 0.126448 -7.376569 2.025734 0.289231 -0.471980 2.394995 0.457222 -7.804133 -5.110833 -83.234446 -69.773115 114.443974 -9.873604 -8.576772 -11.639265 -5.936022 -1.715411 1.977819 3.313283 -5.223798 9.529265 73.438720 -59.043171 -112.579244 3.414316 -9.594857 9.028448 2.315753 -62.907108 11.791059 172.519870 85.971901 171.388286 -12.784621 -22.215565 14.314653 -0.015973 -0.013104 0.031834 3.550830 -61.498469 -1.929769 122.823074 77.638040 121.517740 -5.482916 -20.289945 -1.673899 0.031107 0.146526 0.013664
-9.228903 52.861481 15.295157 -179.708284 -15.586352 -2.618374 0.890733 15.598472 0.440208 0.079953 1.502247 0.039942 0.137329 2.483556 0.076670 0.811869 13.907993 0.492867 0.560166 17.391632 2.033219 0.125699 -7.413215 1.985804 0.290947 -0.508390 2.393483 0.454207 -7.805485 -5.114083 -83.256651 -69.764072 114.469812 -9.869574 -8.579833 -11.640823 -5.959813 -1.769875 2.005343 3.330068 -5.217977 9.522370 73.428262 -59.034701 -112.567598 3.410897 -9.593937 9.018863 2.302081 -62.899344 11.760978 171.783012 85.964555 170.605934 -12.417985 -22.246397 14.260276 -0.019517 -0.040927 0.010124 3.528637 -61.499570 -1.903363 122.833891 77.639162 121.528209 -5.480140 -20.289364 -1.671325 0.027890 0.146659 0.012416
-9.230180 52.862765 15.295064 -179.710320 -15.586429 -2.629205 0.896098 15.610234 0.448346 0.077708 1.505241 0.041233 0.136889 2.506064 0.074357 0.813965 13.892486 0.496721 0.559721 17.377146 2.019154 0.124997 -7.428817 1.985739 0.294779 -0.532461 2.383945 0.448811 -7.807197 -5.108873 -83.278459 -69.763170 114.497340 -9.876384 -8.580831 -11.645668 -5.969445 -1.797330 2.018077 3.327097 -5.226521 9.531785 73.421221 -59.035583 -112.562573 3.419341 -9.600225 9.003988 2.289377 -62.894189 11.746970 171.309048 85.960769 170.104635 -12.150385 -22.268727 14.214627 0.026424 -0.052761 0.001325 3.512556 -61.500951 -1.882623 122.835774 77.638589 121.530928 -5.482434 -20.287491 -1.668710 0.028763 0.145168 0.011237
-9.231315 52.863879 15.295444 -179.707714 -15.582723 -2.640532 0.891751 15.625408 0.454596 0.080935 1.500897 0.043184 0.136997 2.509853 0.074779 0.814634 13.881624 0.497308 0.554155 17.377283 2.005778 0.127606 -7.444854 1.984157 0.294145 -0.543088 2.376244 0.449969 -7.809063 -5.108870 -83.272799 -69.759872 114.495445 -9.876431 -8.590455 -11.638935 -5.973021 -1.806494 2.022587 3.296513 -5.252241 9.573571 73.434833 -59.003023 -112.560302 3.428299 -9.593932 9.006595 2.271134 -62.889980 11.750107 171.097510 85.964038 169.876207 -11.970689 -22.295699 14.191564 0.017002 -0.049280 -0.012811 3.495912 -61.509304 -1.864008 122.844205 77.639136 121.541981 -5.487107 -20.278321 -1.667237 0.031646 0.138955 0.011718
-9.232861 52.865013 15.295511 -179.704170 -15.580000 -2.647757 0.889383 15.629536 0.460023 0.081468 1.508052 0.042948 0.136724 2.513676 0.075202 0.816243 13.891446 0.499366 0.549361 17.357300 1.977777 0.128513 -7.472836 1.981580 0.291785 -0.572034 2.366241 0.451597 -7.810171 -5.105714 -83.270292 -69.756894 114.495361 -9.875979 -8.592066 -11.634080 -5.990787 -1.843300 2.035595 3.293977 -5.258368 9.584203 73.453461 -59.005088 -112.591947 3.437424 -9.588787 9.017157 2.265334 -62.889456 11.748699 170.901820 85.965613 169.675374 -11.866552 -22.307597 14.172110 0.037041 -0.047992 -0.013451 3.481876 -61.512228 -1.853240 122.834309 77.644335 121.538031 -5.490993 -20.272431 -1.672103 0.038051 0.139802 0.014793
-9.234537 52.866252 15.294922 -179.699523 -15.580152 -2.652461 0.886530 15.639577 0.462913 0.081105 1.509266 0.042745 0.136622 2.521684 0.074827 0.811012 13.927946 0.501498 0.552325 17.304853 1.959926 0.132925 -7.498579 1.966501 0.293764 -0.628339 2.360367 0.458079 -7.810951 -5.109268 -83.270051 -69.750812 114.493306 -9.871963 -8.593462 -11.625428 -6.008154 -1.904871 2.049895 3.307496 -5.259036 9.584165 73.455366 -58.997370 -112.587641 3.427000 -9.584106 8.997560 2.263096 -62.884864 11.740007 170.730787 85.964945 169.493395 -11.758913 -22.319685 14.159085 0.008950 -0.050842 -0.018120 3.472593 -61.511401 -1.847479 122.818022 77.643484 121.520517 -5.491240 -20.270541 -1.670826 0.035812 0.140067 0.014793
